<svg xmlns="http://www.w3.org/2000/svg" xmlns:xlink="http://www.w3.org/1999/xlink" width="4000" zoomAndPan="magnify" viewBox="0 0 3000 2999.999989" height="4000" preserveAspectRatio="xMidYMid meet" version="1.0"><defs><g/><clipPath id="ebde5320c1"><rect x="0" width="2496" y="0" height="1055"/></clipPath></defs><g transform="matrix(1, 0, 0, 1, 272, 969)"><g clip-path="url(#ebde5320c1)"><g fill="#000000" fill-opacity="1"><g transform="translate(28.216579, 666.15025)"><g><path d="M 640.28125 -200.046875 C 644.175781 -205.890625 649.285156 -207.957031 655.609375 -206.25 C 661.929688 -204.550781 667.160156 -201.265625 671.296875 -196.390625 C 675.441406 -191.523438 676.050781 -186.660156 673.125 -181.796875 C 668.257812 -174.003906 662.421875 -162.6875 655.609375 -147.84375 C 648.796875 -133 640.640625 -117.179688 631.140625 -100.390625 C 621.648438 -83.597656 610.578125 -67.535156 597.921875 -52.203125 C 585.273438 -36.867188 571.039062 -24.332031 555.21875 -14.59375 C 539.40625 -4.863281 521.523438 0 501.578125 0 C 484.535156 0 470.78125 -4.863281 460.3125 -14.59375 C 449.851562 -24.332031 442.3125 -37.472656 437.6875 -54.015625 C 433.0625 -70.566406 430.75 -88.820312 430.75 -108.78125 C 430.75 -118.03125 431.234375 -127.765625 432.203125 -137.984375 C 433.179688 -148.203125 434.644531 -158.910156 436.59375 -170.109375 C 421.019531 -171.085938 405.8125 -172.546875 390.96875 -174.484375 C 376.125 -176.429688 361.644531 -179.109375 347.53125 -182.515625 C 343.144531 -174.734375 338.757812 -166.828125 334.375 -158.796875 C 330 -150.765625 325.617188 -142.851562 321.234375 -135.0625 C 304.691406 -106.34375 285.585938 -79.328125 263.921875 -54.015625 C 242.265625 -28.710938 219.144531 -8.273438 194.5625 7.296875 C 169.988281 22.867188 144.5625 30.65625 118.28125 30.65625 C 85.175781 30.65625 58.28125 24.691406 37.59375 12.765625 C 16.914062 0.847656 1.832031 -14.597656 -7.65625 -33.578125 C -17.15625 -52.566406 -21.90625 -72.035156 -21.90625 -91.984375 C -21.90625 -111.941406 -17.890625 -131.046875 -9.859375 -149.296875 C -1.828125 -167.554688 9.488281 -182.40625 24.09375 -193.84375 C 38.695312 -205.28125 55.734375 -211 75.203125 -211 C 82.503906 -211 86.15625 -208.078125 86.15625 -202.234375 C 86.15625 -186.171875 93.085938 -173.148438 106.953125 -163.171875 C 120.828125 -153.191406 137.742188 -148.203125 157.703125 -148.203125 C 180.578125 -148.203125 201.625 -153.800781 220.84375 -165 C 240.070312 -176.195312 257.960938 -191.285156 274.515625 -210.265625 C 237.035156 -229.242188 207.34375 -253.820312 185.4375 -284 C 163.539062 -314.175781 152.59375 -347.519531 152.59375 -384.03125 C 152.59375 -409.820312 158.066406 -431.476562 169.015625 -449 C 179.960938 -466.53125 194.441406 -479.914062 212.453125 -489.15625 C 230.460938 -498.40625 249.691406 -503.03125 270.140625 -503.03125 C 297.878906 -503.03125 318.195312 -495.847656 331.09375 -481.484375 C 343.988281 -467.128906 350.4375 -451.4375 350.4375 -434.40625 C 350.925781 -429.050781 349.707031 -424.671875 346.78125 -421.265625 C 343.863281 -417.859375 339.734375 -416.398438 334.390625 -416.890625 C 325.140625 -417.859375 315.765625 -416.640625 306.265625 -413.234375 C 296.773438 -409.828125 288.867188 -403.378906 282.546875 -393.890625 C 276.222656 -384.398438 273.0625 -370.648438 273.0625 -352.640625 C 273.0625 -315.160156 286.6875 -284.984375 313.9375 -262.109375 C 317.34375 -267.460938 320.628906 -272.9375 323.796875 -278.53125 C 326.960938 -284.125 330.25 -289.84375 333.65625 -295.6875 C 370.644531 -362.363281 405.929688 -414.078125 439.515625 -450.828125 C 473.097656 -487.578125 504.972656 -513.128906 535.140625 -527.484375 C 565.316406 -541.835938 593.789062 -549.015625 620.5625 -549.015625 C 646.363281 -549.015625 665.347656 -542.082031 677.515625 -528.21875 C 689.679688 -514.351562 695.765625 -497.441406 695.765625 -477.484375 C 695.273438 -454.117188 689.796875 -434.039062 679.328125 -417.25 C 668.867188 -400.457031 655.851562 -392.0625 640.28125 -392.0625 C 635.40625 -392.0625 631.019531 -393.398438 627.125 -396.078125 C 623.238281 -398.753906 618.617188 -399.847656 613.265625 -399.359375 C 605.960938 -399.359375 597.929688 -393.03125 589.171875 -380.375 C 580.410156 -367.71875 571.40625 -346.300781 562.15625 -316.125 C 557.769531 -301.039062 553.507812 -284.976562 549.375 -267.9375 C 545.238281 -250.90625 543.171875 -235.332031 543.171875 -221.21875 C 543.171875 -206.125 545.96875 -193.832031 551.5625 -184.34375 C 557.164062 -174.851562 566.78125 -170.109375 580.40625 -170.109375 C 591.601562 -170.109375 602.675781 -172.421875 613.625 -177.046875 C 624.582031 -181.671875 633.46875 -189.335938 640.28125 -200.046875 Z M 447.546875 -219.765625 C 457.285156 -253.828125 466.410156 -280.957031 474.921875 -301.15625 C 483.441406 -321.363281 490.378906 -337.550781 495.734375 -349.71875 C 501.085938 -361.882812 503.765625 -372.832031 503.765625 -382.5625 C 503.765625 -389.382812 500.84375 -392.796875 495 -392.796875 C 490.132812 -392.796875 485.023438 -390.96875 479.671875 -387.3125 C 474.316406 -383.664062 466.285156 -375.515625 455.578125 -362.859375 C 440.972656 -343.878906 426.976562 -323.191406 413.59375 -300.796875 C 400.207031 -278.410156 386.945312 -255.289062 373.8125 -231.4375 C 384.519531 -228.03125 396.078125 -225.472656 408.484375 -223.765625 C 420.898438 -222.066406 433.921875 -220.734375 447.546875 -219.765625 Z M 447.546875 -219.765625 "/></g></g></g><g fill="#000000" fill-opacity="1"><g transform="translate(651.641675, 666.15025)"><g><path d="M 300.0625 -200.046875 C 303.957031 -205.890625 308.945312 -207.957031 315.03125 -206.25 C 321.113281 -204.550781 326.222656 -201.265625 330.359375 -196.390625 C 334.503906 -191.523438 335.359375 -186.660156 332.921875 -181.796875 C 329.023438 -173.515625 323.304688 -161.953125 315.765625 -147.109375 C 308.222656 -132.265625 298.734375 -116.445312 287.296875 -99.65625 C 275.859375 -82.863281 261.984375 -66.921875 245.671875 -51.828125 C 229.367188 -36.742188 210.628906 -24.457031 189.453125 -14.96875 C 168.285156 -5.476562 144.070312 -0.734375 116.8125 -0.734375 C 84.6875 -0.734375 59.253906 -7.546875 40.515625 -21.171875 C 21.773438 -34.796875 9 -52.070312 2.1875 -73 C -4.625 -93.9375 -6.566406 -115.84375 -3.640625 -138.71875 C -0.722656 -161.59375 6.085938 -182.035156 16.796875 -200.046875 L 19.71875 -204.421875 C 32.851562 -221.941406 45.867188 -241.046875 58.765625 -261.734375 C 71.671875 -282.421875 84.9375 -301.890625 98.5625 -320.140625 C 112.1875 -338.398438 126.300781 -353.488281 140.90625 -365.40625 C 155.507812 -377.332031 170.597656 -383.296875 186.171875 -383.296875 C 209.046875 -383.296875 225.957031 -377.941406 236.90625 -367.234375 C 247.863281 -356.523438 253.097656 -345.332031 252.609375 -333.65625 C 252.609375 -327.8125 250.050781 -322.941406 244.9375 -319.046875 C 239.832031 -315.148438 233.75 -311.617188 226.6875 -308.453125 C 219.632812 -305.296875 213.429688 -301.40625 208.078125 -296.78125 C 202.722656 -292.15625 200.046875 -286.191406 200.046875 -278.890625 C 200.046875 -274.515625 203.453125 -265.753906 210.265625 -252.609375 C 217.078125 -239.472656 224.375 -224.75 232.15625 -208.4375 C 239.945312 -192.132812 245.304688 -176.4375 248.234375 -161.34375 C 259.429688 -161.832031 269.039062 -165.726562 277.0625 -173.03125 C 285.09375 -180.332031 292.757812 -189.335938 300.0625 -200.046875 Z M 90.53125 -151.125 C 106.59375 -151.125 119.003906 -156.234375 127.765625 -166.453125 C 136.523438 -176.679688 140.90625 -189.335938 140.90625 -204.421875 C 140.90625 -213.179688 139.566406 -222.1875 136.890625 -231.4375 C 134.210938 -240.6875 130.195312 -250.175781 124.84375 -259.90625 C 119.976562 -269.644531 114.140625 -269.644531 107.328125 -259.90625 C 98.078125 -246.28125 88.21875 -232.53125 77.75 -218.65625 C 67.289062 -204.789062 57.921875 -192.503906 49.640625 -181.796875 C 49.640625 -173.035156 53.410156 -165.734375 60.953125 -159.890625 C 68.503906 -154.046875 78.363281 -151.125 90.53125 -151.125 Z M 90.53125 -151.125 "/></g></g></g><g fill="#000000" fill-opacity="1"><g transform="translate(934.153958, 666.15025)"><g><path d="M 49.640625 0 C 28.710938 0 13.988281 -7.175781 5.46875 -21.53125 C -3.039062 -35.894531 -7.296875 -53.785156 -7.296875 -75.203125 C -7.296875 -93.691406 -4.984375 -113.890625 -0.359375 -135.796875 C 4.265625 -157.703125 10.222656 -179.117188 17.515625 -200.046875 C 42.335938 -271.109375 63.390625 -330.734375 80.671875 -378.921875 C 97.953125 -427.109375 114.625 -463.488281 130.6875 -488.0625 C 146.75 -512.632812 164.515625 -524.921875 183.984375 -524.921875 C 199.066406 -524.921875 208.429688 -519.328125 212.078125 -508.140625 C 215.734375 -496.953125 212.207031 -479.675781 201.5 -456.3125 C 192.257812 -435.382812 182.160156 -415.0625 171.203125 -395.34375 C 160.253906 -375.632812 152.585938 -357.257812 148.203125 -340.21875 C 144.316406 -325.132812 144.679688 -316.617188 149.296875 -314.671875 C 153.921875 -312.722656 160.128906 -315.644531 167.921875 -323.4375 C 181.546875 -336.570312 195.660156 -346.789062 210.265625 -354.09375 C 224.867188 -361.394531 240.203125 -365.046875 256.265625 -365.046875 C 278.648438 -365.046875 295.195312 -358.472656 305.90625 -345.328125 C 316.613281 -332.191406 321.96875 -316.375 321.96875 -297.875 C 321.96875 -285.21875 320.019531 -273.65625 316.125 -263.1875 C 312.238281 -252.726562 308.347656 -242.507812 304.453125 -232.53125 C 300.554688 -222.550781 298.609375 -211.476562 298.609375 -199.3125 C 298.609375 -174.976562 309.800781 -162.8125 332.1875 -162.8125 C 343.382812 -162.8125 352.753906 -166.335938 360.296875 -173.390625 C 367.847656 -180.453125 375.269531 -189.335938 382.5625 -200.046875 C 386.457031 -205.890625 391.566406 -207.957031 397.890625 -206.25 C 404.222656 -204.550781 409.457031 -201.265625 413.59375 -196.390625 C 417.726562 -191.523438 418.335938 -186.660156 415.421875 -181.796875 C 410.554688 -174.003906 404.71875 -162.6875 397.90625 -147.84375 C 391.09375 -133 382.9375 -117.179688 373.4375 -100.390625 C 363.945312 -83.597656 352.875 -67.535156 340.21875 -52.203125 C 327.5625 -36.867188 313.320312 -24.332031 297.5 -14.59375 C 281.6875 -4.863281 263.800781 0 243.84375 0 C 220 0 203.332031 -7.539062 193.84375 -22.625 C 184.351562 -37.71875 179.609375 -55.488281 179.609375 -75.9375 C 179.609375 -94.425781 182.523438 -112.066406 188.359375 -128.859375 C 194.203125 -145.648438 199.921875 -160.984375 205.515625 -174.859375 C 211.117188 -188.734375 213.921875 -200.535156 213.921875 -210.265625 C 213.921875 -218.535156 211.363281 -224.859375 206.25 -229.234375 C 201.132812 -233.617188 194.441406 -235.8125 186.171875 -235.8125 C 172.054688 -235.8125 159.035156 -229.847656 147.109375 -217.921875 C 135.191406 -206.003906 125.582031 -190.550781 118.28125 -171.5625 C 110.976562 -152.582031 107.328125 -132.144531 107.328125 -110.25 L 107.328125 -77.390625 C 107.328125 -65.222656 105.863281 -53.175781 102.9375 -41.25 C 100.019531 -29.320312 94.421875 -19.460938 86.140625 -11.671875 C 77.867188 -3.890625 65.703125 0 49.640625 0 Z M 49.640625 0 "/></g></g></g><g fill="#000000" fill-opacity="1"><g transform="translate(1299.886914, 666.15025)"><g><path d="M 77.390625 0 C 52.566406 0 33.828125 -10.21875 21.171875 -30.65625 C 8.515625 -51.101562 2.1875 -77.632812 2.1875 -110.25 C 2.1875 -130.6875 4.738281 -152.460938 9.84375 -175.578125 C 14.957031 -198.703125 22.503906 -221.457031 32.484375 -243.84375 C 42.460938 -266.238281 54.992188 -286.5625 70.078125 -304.8125 C 85.171875 -323.0625 102.695312 -337.660156 122.65625 -348.609375 C 142.613281 -359.566406 165.242188 -365.046875 190.546875 -365.046875 C 205.148438 -365.046875 216.46875 -363.707031 224.5 -361.03125 C 232.53125 -358.351562 238.613281 -355.066406 242.75 -351.171875 C 246.894531 -347.273438 250.425781 -343.988281 253.34375 -341.3125 C 256.257812 -338.632812 260.15625 -337.296875 265.03125 -337.296875 C 273.300781 -337.296875 279.988281 -339.609375 285.09375 -344.234375 C 290.207031 -348.859375 295.925781 -353.484375 302.25 -358.109375 C 308.582031 -362.734375 317.347656 -365.046875 328.546875 -365.046875 C 338.273438 -365.046875 344.960938 -362.609375 348.609375 -357.734375 C 352.265625 -352.867188 354.09375 -346.300781 354.09375 -338.03125 C 354.09375 -324.40625 350.320312 -310.898438 342.78125 -297.515625 C 335.238281 -284.128906 327.328125 -266.726562 319.046875 -245.3125 C 306.878906 -218.539062 302.378906 -198.097656 305.546875 -183.984375 C 308.710938 -169.867188 318.328125 -162.8125 334.390625 -162.8125 C 347.035156 -162.8125 357.984375 -166.09375 367.234375 -172.65625 C 376.484375 -179.226562 384.757812 -188.359375 392.0625 -200.046875 C 395.957031 -205.890625 400.945312 -207.957031 407.03125 -206.25 C 413.113281 -204.550781 418.222656 -201.265625 422.359375 -196.390625 C 426.492188 -191.523438 427.347656 -186.660156 424.921875 -181.796875 C 416.148438 -164.753906 406.773438 -145.890625 396.796875 -125.203125 C 386.828125 -104.523438 375.753906 -84.691406 363.578125 -65.703125 C 351.410156 -46.722656 337.539062 -31.023438 321.96875 -18.609375 C 306.394531 -6.203125 288.382812 0 267.9375 0 C 242.632812 0 224.75 -10.21875 214.28125 -30.65625 C 203.8125 -51.101562 200.769531 -76.414062 205.15625 -106.59375 L 202.234375 -106.59375 C 187.628906 -76.90625 169.617188 -51.71875 148.203125 -31.03125 C 126.785156 -10.34375 103.179688 0 77.390625 0 Z M 150.40625 -151.125 C 163.050781 -151.125 174.117188 -154.773438 183.609375 -162.078125 C 193.109375 -169.378906 200.535156 -178.257812 205.890625 -188.71875 C 211.242188 -199.1875 213.921875 -209.535156 213.921875 -219.765625 C 213.921875 -231.929688 210.507812 -241.421875 203.6875 -248.234375 C 196.875 -255.046875 187.628906 -258.453125 175.953125 -258.453125 C 163.296875 -258.453125 152.34375 -255.046875 143.09375 -248.234375 C 133.851562 -241.421875 126.675781 -232.78125 121.5625 -222.3125 C 116.445312 -211.84375 113.890625 -201.253906 113.890625 -190.546875 C 113.890625 -178.378906 117.175781 -168.765625 123.75 -161.703125 C 130.320312 -154.648438 139.207031 -151.125 150.40625 -151.125 Z M 150.40625 -151.125 "/></g></g></g><g fill="#000000" fill-opacity="1"><g transform="translate(1675.110037, 666.15025)"><g><path d="M 46 0 C 28.957031 0 15.8125 -5.109375 6.5625 -15.328125 C -2.675781 -25.546875 -7.296875 -38.203125 -7.296875 -53.296875 C -7.296875 -70.328125 -5.347656 -91.617188 -1.453125 -117.171875 C 2.429688 -142.734375 8.515625 -170.359375 16.796875 -200.046875 C 25.066406 -228.765625 34.191406 -255.65625 44.171875 -280.71875 C 54.148438 -305.789062 64.367188 -326.113281 74.828125 -341.6875 C 85.296875 -357.257812 95.15625 -365.046875 104.40625 -365.046875 C 114.132812 -365.046875 120.582031 -362.242188 123.75 -356.640625 C 126.914062 -351.046875 128.5 -344.597656 128.5 -337.296875 C 128.5 -323.179688 131.90625 -314.421875 138.71875 -311.015625 C 145.53125 -307.609375 154.78125 -311.75 166.46875 -323.4375 C 180.09375 -336.570312 194.203125 -346.789062 208.796875 -354.09375 C 223.398438 -361.394531 238.734375 -365.046875 254.796875 -365.046875 C 277.191406 -365.046875 293.742188 -358.472656 304.453125 -345.328125 C 315.160156 -332.191406 320.515625 -316.375 320.515625 -297.875 C 320.515625 -285.21875 318.566406 -273.65625 314.671875 -263.1875 C 310.773438 -252.726562 306.878906 -242.507812 302.984375 -232.53125 C 299.085938 -222.550781 297.140625 -211.476562 297.140625 -199.3125 C 297.140625 -174.976562 308.820312 -162.8125 332.1875 -162.8125 C 343.382812 -162.8125 352.753906 -166.335938 360.296875 -173.390625 C 367.847656 -180.453125 375.269531 -189.335938 382.5625 -200.046875 C 386.457031 -205.890625 391.566406 -207.957031 397.890625 -206.25 C 404.222656 -204.550781 409.457031 -201.265625 413.59375 -196.390625 C 417.726562 -191.523438 418.335938 -186.660156 415.421875 -181.796875 C 410.554688 -174.003906 404.71875 -162.6875 397.90625 -147.84375 C 391.09375 -133 382.9375 -117.179688 373.4375 -100.390625 C 363.945312 -83.597656 352.875 -67.535156 340.21875 -52.203125 C 327.5625 -36.867188 313.320312 -24.332031 297.5 -14.59375 C 281.6875 -4.863281 263.800781 0 243.84375 0 C 220.96875 0 204.90625 -7.539062 195.65625 -22.625 C 186.414062 -37.71875 181.796875 -55.488281 181.796875 -75.9375 C 181.796875 -94.425781 184.347656 -112.066406 189.453125 -128.859375 C 194.566406 -145.648438 199.675781 -160.984375 204.78125 -174.859375 C 209.894531 -188.734375 212.453125 -200.535156 212.453125 -210.265625 C 212.453125 -218.535156 209.894531 -224.859375 204.78125 -229.234375 C 199.675781 -233.617188 192.988281 -235.8125 184.71875 -235.8125 C 170.601562 -235.8125 157.582031 -229.847656 145.65625 -217.921875 C 133.726562 -206.003906 124.113281 -190.550781 116.8125 -171.5625 C 109.507812 -152.582031 105.859375 -132.144531 105.859375 -110.25 L 105.859375 -77.390625 C 105.859375 -65.222656 104.398438 -53.175781 101.484375 -41.25 C 98.566406 -29.320312 92.847656 -19.460938 84.328125 -11.671875 C 75.804688 -3.890625 63.03125 0 46 0 Z M 46 0 "/></g></g></g><g fill="#000000" fill-opacity="1"><g transform="translate(2040.843104, 666.15025)"><g><path d="M 73.734375 0 C 46.484375 0 26.40625 -8.394531 13.5 -25.1875 C 0.601562 -41.976562 -5.84375 -63.878906 -5.84375 -90.890625 C -5.84375 -117.910156 -0.488281 -146.992188 10.21875 -178.140625 C 16.550781 -196.640625 23.609375 -216.597656 31.390625 -238.015625 C 39.179688 -259.429688 47.703125 -282.789062 56.953125 -308.09375 C 46.242188 -308.09375 38.085938 -310.890625 32.484375 -316.484375 C 26.890625 -322.085938 23.238281 -328.660156 21.53125 -336.203125 C 19.832031 -343.753906 19.832031 -350.328125 21.53125 -355.921875 C 23.238281 -361.515625 26.28125 -364.3125 30.65625 -364.3125 C 52.070312 -364.3125 68.863281 -370.273438 81.03125 -382.203125 C 93.207031 -394.128906 101.726562 -406.660156 106.59375 -419.796875 C 115.351562 -441.210938 123.867188 -454.71875 132.140625 -460.3125 C 140.421875 -465.914062 149.1875 -468.71875 158.4375 -468.71875 C 172.0625 -468.71875 180.578125 -463 183.984375 -451.5625 C 187.390625 -440.125 183.492188 -422.96875 172.296875 -400.09375 C 166.941406 -388.40625 164.019531 -379.519531 163.53125 -373.4375 C 163.050781 -367.351562 166.21875 -364.3125 173.03125 -364.3125 L 211 -364.3125 C 215.863281 -364.3125 219.023438 -360.90625 220.484375 -354.09375 C 221.941406 -347.28125 221.816406 -339.492188 220.109375 -330.734375 C 218.410156 -321.972656 215.25 -314.179688 210.625 -307.359375 C 206.007812 -300.546875 200.050781 -297.140625 192.75 -297.140625 C 170.351562 -297.140625 153.800781 -296.285156 143.09375 -294.578125 C 132.382812 -292.878906 124.835938 -288.625 120.453125 -281.8125 C 116.078125 -275 111.457031 -263.316406 106.59375 -246.765625 C 98.800781 -221.460938 99.894531 -201.265625 109.875 -186.171875 C 119.851562 -171.085938 135.550781 -163.546875 156.96875 -163.546875 C 171.570312 -163.546875 184.59375 -166.828125 196.03125 -173.390625 C 207.46875 -179.960938 216.835938 -188.847656 224.140625 -200.046875 C 228.035156 -205.890625 233.023438 -207.957031 239.109375 -206.25 C 245.191406 -204.550781 250.300781 -201.265625 254.4375 -196.390625 C 258.570312 -191.523438 259.425781 -186.660156 257 -181.796875 C 252.613281 -173.515625 246.769531 -162.070312 239.46875 -147.46875 C 232.164062 -132.875 223.40625 -117.054688 213.1875 -100.015625 C 202.96875 -82.984375 191.039062 -66.921875 177.40625 -51.828125 C 163.78125 -36.742188 148.328125 -24.332031 131.046875 -14.59375 C 113.773438 -4.863281 94.671875 0 73.734375 0 Z M 73.734375 0 "/></g></g></g><g fill="#000000" fill-opacity="1"><g transform="translate(2248.164607, 666.15025)"><g><path d="M 146.75 -394.984375 C 129.226562 -394.984375 114.140625 -398.753906 101.484375 -406.296875 C 88.828125 -413.835938 82.5 -427.34375 82.5 -446.8125 C 82.5 -472.613281 89.675781 -490.253906 104.03125 -499.734375 C 118.394531 -509.222656 135.554688 -513.96875 155.515625 -513.96875 C 174.003906 -513.96875 189.695312 -509.832031 202.59375 -501.5625 C 215.5 -493.289062 220.976562 -477.71875 219.03125 -454.84375 C 217.082031 -432.457031 209.289062 -416.882812 195.65625 -408.125 C 182.03125 -399.363281 165.726562 -394.984375 146.75 -394.984375 Z M 65.703125 0 C 41.367188 0 24.09375 -8.878906 13.875 -26.640625 C 3.65625 -44.410156 -1.453125 -65.953125 -1.453125 -91.265625 C -1.453125 -108.296875 0.25 -126.300781 3.65625 -145.28125 C 7.0625 -164.269531 11.441406 -182.523438 16.796875 -200.046875 C 33.828125 -253.097656 50.375 -293.859375 66.4375 -322.328125 C 82.5 -350.804688 100.992188 -365.046875 121.921875 -365.046875 C 138.472656 -365.046875 146.75 -354.09375 146.75 -332.1875 C 146.75 -317.59375 143.945312 -302.628906 138.34375 -287.296875 C 132.75 -271.960938 127.273438 -256.875 121.921875 -242.03125 C 116.566406 -227.1875 113.890625 -213.191406 113.890625 -200.046875 C 113.890625 -187.878906 116.929688 -178.753906 123.015625 -172.671875 C 129.097656 -166.585938 137.007812 -163.546875 146.75 -163.546875 C 157.945312 -163.546875 167.316406 -166.953125 174.859375 -173.765625 C 182.398438 -180.578125 189.820312 -189.335938 197.125 -200.046875 C 201.019531 -205.890625 206.007812 -208.078125 212.09375 -206.609375 C 218.175781 -205.148438 223.285156 -201.863281 227.421875 -196.75 C 231.554688 -191.644531 232.410156 -186.898438 229.984375 -182.515625 C 225.109375 -174.734375 219.382812 -163.539062 212.8125 -148.9375 C 206.25 -134.332031 198.34375 -118.515625 189.09375 -101.484375 C 179.84375 -84.453125 169.253906 -68.269531 157.328125 -52.9375 C 145.410156 -37.601562 131.90625 -24.945312 116.8125 -14.96875 C 101.726562 -4.988281 84.691406 0 65.703125 0 Z M 65.703125 0 "/></g></g></g><g fill="#000000" fill-opacity="1"><g transform="translate(872.754498, 934.719527)"><g><path d="M 55.5625 -16.625 C 59.519531 -16.625 62.84375 -17.097656 65.53125 -18.046875 C 68.226562 -18.992188 70.378906 -20.257812 71.984375 -21.84375 C 73.597656 -23.425781 74.757812 -25.269531 75.46875 -27.375 C 76.175781 -29.488281 76.53125 -31.734375 76.53125 -34.109375 C 76.53125 -36.585938 76.132812 -38.816406 75.34375 -40.796875 C 74.550781 -42.773438 73.3125 -44.460938 71.625 -45.859375 C 69.9375 -47.265625 67.757812 -48.335938 65.09375 -49.078125 C 62.4375 -49.816406 59.234375 -50.1875 55.484375 -50.1875 L 34.03125 -50.1875 L 34.03125 -16.625 Z M 34.03125 -97.984375 L 34.03125 -64.90625 L 50.96875 -64.90625 C 58.25 -64.90625 63.75 -66.222656 67.46875 -68.859375 C 71.1875 -71.492188 73.046875 -75.6875 73.046875 -81.4375 C 73.046875 -87.40625 71.359375 -91.65625 67.984375 -94.1875 C 64.609375 -96.71875 59.332031 -97.984375 52.15625 -97.984375 Z M 52.15625 -114.453125 C 59.644531 -114.453125 66.054688 -113.738281 71.390625 -112.3125 C 76.722656 -110.882812 81.085938 -108.851562 84.484375 -106.21875 C 87.890625 -103.582031 90.382812 -100.390625 91.96875 -96.640625 C 93.550781 -92.890625 94.34375 -88.671875 94.34375 -83.984375 C 94.34375 -81.285156 93.945312 -78.707031 93.15625 -76.25 C 92.363281 -73.800781 91.132812 -71.507812 89.46875 -69.375 C 87.8125 -67.238281 85.703125 -65.296875 83.140625 -63.546875 C 80.585938 -61.804688 77.539062 -60.332031 74 -59.125 C 89.726562 -55.59375 97.59375 -47.097656 97.59375 -33.640625 C 97.59375 -28.785156 96.664062 -24.300781 94.8125 -20.1875 C 92.96875 -16.070312 90.273438 -12.519531 86.734375 -9.53125 C 83.203125 -6.550781 78.851562 -4.21875 73.6875 -2.53125 C 68.519531 -0.84375 62.609375 0 55.953125 0 L 12.75 0 L 12.75 -114.453125 Z M 52.15625 -114.453125 "/></g></g></g><g fill="#000000" fill-opacity="1"><g transform="translate(994.993395, 934.719527)"><g><path d="M 34.109375 -97.515625 L 34.109375 -65.765625 L 74.15625 -65.765625 L 74.15625 -49.390625 L 34.109375 -49.390625 L 34.109375 -17.015625 L 84.921875 -17.015625 L 84.921875 0 L 12.75 0 L 12.75 -114.453125 L 84.921875 -114.453125 L 84.921875 -97.515625 Z M 34.109375 -97.515625 "/></g></g></g><g fill="#000000" fill-opacity="1"><g transform="translate(1104.02123, 934.719527)"><g><path d="M 73.21875 -43.21875 L 59.28125 -81.28125 C 58.59375 -82.96875 57.878906 -84.972656 57.140625 -87.296875 C 56.398438 -89.617188 55.660156 -92.125 54.921875 -94.8125 C 54.242188 -92.125 53.535156 -89.601562 52.796875 -87.25 C 52.054688 -84.90625 51.34375 -82.863281 50.65625 -81.125 L 36.796875 -43.21875 Z M 110.8125 0 L 94.34375 0 C 92.5 0 90.992188 -0.457031 89.828125 -1.375 C 88.671875 -2.300781 87.800781 -3.453125 87.21875 -4.828125 L 78.671875 -28.171875 L 31.265625 -28.171875 L 22.71875 -4.828125 C 22.289062 -3.609375 21.46875 -2.5 20.25 -1.5 C 19.039062 -0.5 17.539062 0 15.75 0 L -0.875 0 L 44.171875 -114.453125 L 65.859375 -114.453125 Z M 110.8125 0 "/></g></g></g><g fill="#000000" fill-opacity="1"><g transform="translate(1231.955899, 934.719527)"><g><path d="M 58.8125 -17.171875 C 62.925781 -17.171875 66.601562 -17.859375 69.84375 -19.234375 C 73.09375 -20.609375 75.820312 -22.535156 78.03125 -25.015625 C 80.25 -27.492188 81.953125 -30.5 83.140625 -34.03125 C 84.328125 -37.570312 84.921875 -41.53125 84.921875 -45.90625 L 84.921875 -114.453125 L 106.21875 -114.453125 L 106.21875 -45.90625 C 106.21875 -39.101562 105.117188 -32.8125 102.921875 -27.03125 C 100.734375 -21.25 97.59375 -16.257812 93.5 -12.0625 C 89.414062 -7.875 84.445312 -4.601562 78.59375 -2.25 C 72.738281 0.09375 66.144531 1.265625 58.8125 1.265625 C 51.425781 1.265625 44.800781 0.09375 38.9375 -2.25 C 33.082031 -4.601562 28.109375 -7.875 24.015625 -12.0625 C 19.929688 -16.257812 16.789062 -21.25 14.59375 -27.03125 C 12.40625 -32.8125 11.3125 -39.101562 11.3125 -45.90625 L 11.3125 -114.453125 L 32.609375 -114.453125 L 32.609375 -45.984375 C 32.609375 -41.609375 33.203125 -37.648438 34.390625 -34.109375 C 35.578125 -30.578125 37.289062 -27.554688 39.53125 -25.046875 C 41.78125 -22.546875 44.523438 -20.609375 47.765625 -19.234375 C 51.015625 -17.859375 54.695312 -17.171875 58.8125 -17.171875 Z M 58.8125 -17.171875 "/></g></g></g><g fill="#000000" fill-opacity="1"><g transform="translate(1367.484965, 934.719527)"><g><path d="M 92.6875 -96.953125 L 58.171875 -96.953125 L 58.171875 0 L 36.890625 0 L 36.890625 -96.953125 L 2.375 -96.953125 L 2.375 -114.453125 L 92.6875 -114.453125 Z M 92.6875 -96.953125 "/></g></g></g><g fill="#000000" fill-opacity="1"><g transform="translate(1480.468262, 934.719527)"><g><path d="M 61.890625 -44.328125 L 61.890625 0 L 40.6875 0 L 40.6875 -44.328125 L -1.03125 -114.453125 L 17.734375 -114.453125 C 19.578125 -114.453125 21.039062 -114 22.125 -113.09375 C 23.207031 -112.195312 24.117188 -111.066406 24.859375 -109.703125 L 45.75 -71.46875 C 46.957031 -69.195312 48.023438 -67.054688 48.953125 -65.046875 C 49.878906 -63.046875 50.710938 -61.046875 51.453125 -59.046875 C 52.128906 -61.046875 52.914062 -63.046875 53.8125 -65.046875 C 54.71875 -67.054688 55.75 -69.195312 56.90625 -71.46875 L 77.71875 -109.703125 C 78.300781 -110.859375 79.171875 -111.9375 80.328125 -112.9375 C 81.492188 -113.945312 82.972656 -114.453125 84.765625 -114.453125 L 103.609375 -114.453125 Z M 61.890625 -44.328125 "/></g></g></g></g></g></svg>