<svg width="1200" height="900" viewBox="0 0 1200 900" fill="none" xmlns="http://www.w3.org/2000/svg">
  <rect width="1200" height="900" rx="48" fill="#FAF3F5"/>
  <rect x="50" y="50" width="1100" height="800" rx="36" fill="url(#paint0_linear)"/>
  <circle cx="970" cy="180" r="120" fill="#E9C8D0"/>
  <circle cx="236" cy="718" r="134" fill="#F4DFE4"/>
  <rect x="146" y="170" width="400" height="560" rx="28" fill="#241F23"/>
  <rect x="594" y="170" width="458" height="190" rx="28" fill="#FFFFFF" fill-opacity="0.88"/>
  <rect x="594" y="394" width="458" height="140" rx="28" fill="#FFFFFF" fill-opacity="0.82"/>
  <rect x="594" y="568" width="458" height="162" rx="28" fill="#E9C8D0" fill-opacity="0.5"/>
  <path d="M210 260C210 223.549 239.549 194 276 194H416C452.451 194 482 223.549 482 260V638H210V260Z" fill="#E9C8D0"/>
  <path d="M652 228H900" stroke="#241F23" stroke-opacity="0.52" stroke-width="18" stroke-linecap="round"/>
  <path d="M652 276H840" stroke="#241F23" stroke-opacity="0.28" stroke-width="14" stroke-linecap="round"/>
  <path d="M652 446H1002" stroke="#241F23" stroke-opacity="0.18" stroke-width="14" stroke-linecap="round"/>
  <path d="M652 494H920" stroke="#241F23" stroke-opacity="0.18" stroke-width="14" stroke-linecap="round"/>
  <path d="M652 622H986" stroke="#241F23" stroke-opacity="0.34" stroke-width="16" stroke-linecap="round"/>
  <path d="M652 672H870" stroke="#241F23" stroke-opacity="0.26" stroke-width="14" stroke-linecap="round"/>
  <defs>
    <linearGradient id="paint0_linear" x1="122" y1="96" x2="1072" y2="792" gradientUnits="userSpaceOnUse">
      <stop stop-color="#FFFDFE"/>
      <stop offset="1" stop-color="#F5EBEE"/>
    </linearGradient>
  </defs>
</svg>
