<svg width="280" height="280" viewBox="0 0 280 280" fill="none" xmlns="http://www.w3.org/2000/svg">
  <rect width="280" height="280" rx="28" fill="#FFF9FB"/>
  <rect x="24" y="24" width="232" height="232" rx="20" fill="white" stroke="#241F23" stroke-opacity="0.08"/>
  <rect x="44" y="44" width="56" height="56" rx="8" fill="#241F23"/>
  <rect x="180" y="44" width="56" height="56" rx="8" fill="#241F23"/>
  <rect x="44" y="180" width="56" height="56" rx="8" fill="#241F23"/>
  <rect x="60" y="60" width="24" height="24" rx="4" fill="#FFF9FB"/>
  <rect x="196" y="60" width="24" height="24" rx="4" fill="#FFF9FB"/>
  <rect x="60" y="196" width="24" height="24" rx="4" fill="#FFF9FB"/>
  <circle cx="176" cy="176" r="34" fill="#E9C8D0"/>
  <rect x="122" y="120" width="18" height="18" rx="3" fill="#241F23"/>
  <rect x="146" y="120" width="18" height="18" rx="3" fill="#E9C8D0"/>
  <rect x="122" y="144" width="18" height="18" rx="3" fill="#E9C8D0"/>
  <rect x="98" y="144" width="18" height="18" rx="3" fill="#241F23"/>
  <rect x="122" y="168" width="18" height="18" rx="3" fill="#241F23"/>
  <rect x="146" y="168" width="18" height="18" rx="3" fill="#241F23"/>
  <rect x="194" y="120" width="18" height="18" rx="3" fill="#E9C8D0"/>
  <rect x="194" y="144" width="18" height="18" rx="3" fill="#241F23"/>
  <rect x="194" y="168" width="18" height="18" rx="3" fill="#E9C8D0"/>
  <path d="M104 248H178" stroke="#241F23" stroke-opacity="0.35" stroke-width="10" stroke-linecap="round"/>
</svg>
